<?xml version="1.0" standalone="no"?>
<!DOCTYPE svg PUBLIC "-//W3C//DTD SVG 20010904//EN"
 "http://www.w3.org/TR/2001/REC-SVG-20010904/DTD/svg10.dtd">
<svg version="1.0" xmlns="http://www.w3.org/2000/svg"
 width="360.000000pt" height="256.000000pt" viewBox="0 0 360.000000 256.000000"
 preserveAspectRatio="xMidYMid meet">

<g transform="translate(0.000000,256.000000) scale(0.100000,-0.100000)"
fill="#000000" stroke="none">
<path d="M0 2549 c0 -5 5 -7 10 -4 5 3 10 8 10 11 0 2 -4 4 -10 4 -5 0 -10 -5
-10 -11z"/>
<path d="M111 2523 c10 -21 19 -48 19 -60 0 -61 -58 -133 -106 -133 -13 0 -24
-5 -24 -11 0 -18 61 -2 88 24 34 30 52 78 52 132 0 51 -14 85 -34 85 -11 0
-10 -8 5 -37z"/>
<path d="M2110 2548 c0 -7 9 -32 19 -55 43 -94 154 -96 201 -3 11 21 20 47 19
57 -1 10 -6 3 -12 -15 -15 -48 -62 -92 -97 -92 -37 0 -70 41 -70 86 0 31 -3
34 -30 34 -17 0 -30 -5 -30 -12z"/>
<path d="M1342 2341 c-11 -6 -12 -35 -6 -140 l7 -131 47 0 c61 0 82 22 88 94
5 67 -10 100 -44 93 -23 -4 -24 -2 -24 44 0 47 -1 49 -27 49 -16 0 -34 -4 -41
-9z m102 -193 c3 -13 1 -27 -3 -31 -14 -14 -31 2 -31 29 0 30 26 32 34 2z"/>
<path d="M1676 2343 c-17 -4 -18 -12 -12 -71 3 -37 6 -97 6 -134 l0 -68 48 0
c26 0 52 4 58 8 22 14 34 52 34 105 0 60 -16 83 -50 72 -18 -6 -20 -2 -20 44
0 54 -7 59 -64 44z m99 -194 c9 -27 -12 -50 -25 -29 -14 22 -12 50 4 50 8 0
18 -9 21 -21z"/>
<path d="M2604 2342 c-32 -22 -44 -58 -44 -137 0 -102 13 -129 63 -133 21 -2
45 2 53 9 10 8 14 8 14 0 0 -15 30 -14 31 2 1 6 2 35 3 62 l1 50 -53 0 c-41
-1 -51 2 -47 13 3 7 5 31 5 53 0 35 3 39 25 39 18 0 25 -5 25 -20 0 -13 5 -18
15 -14 21 8 19 40 -5 64 -20 20 -65 26 -86 12z m66 -203 c0 -24 -20 -35 -31
-18 -16 26 -11 48 11 42 11 -3 20 -14 20 -24z"/>
<path d="M346 2318 c-29 -41 -17 -108 19 -108 30 0 47 -22 43 -57 -4 -34 -38
-46 -38 -14 0 12 -6 21 -15 21 -22 0 -19 -53 5 -75 15 -13 30 -16 65 -13 l45
6 -7 -71 -6 -70 44 7 c24 4 44 8 46 9 1 2 -2 28 -6 60 -7 55 -7 57 15 57 63 0
101 89 71 163 -13 30 -21 37 -45 37 -15 0 -37 -7 -48 -15 -25 -19 -34 -19 -34
0 0 8 -7 15 -15 15 -8 0 -15 -7 -15 -15 0 -18 -9 -19 -45 -5 -19 7 -26 16 -23
32 4 25 28 37 28 14 0 -9 4 -16 9 -16 16 0 23 19 16 40 -10 30 -88 28 -109 -2z
m224 -164 c12 -31 6 -44 -21 -44 -15 0 -19 7 -19 35 0 43 25 48 40 9z"/>
<path d="M1987 2322 c-17 -19 -23 -78 -9 -98 4 -7 18 -14 31 -15 39 -6 54 -89
16 -89 -8 0 -15 9 -15 20 0 14 -7 20 -21 20 -19 0 -21 -4 -15 -32 3 -18 14
-39 23 -45 21 -16 67 -17 94 -2 12 6 25 7 32 2 7 -5 34 -10 61 -11 l49 -3 -5
80 c-6 97 -21 121 -80 121 -31 0 -38 -4 -38 -20 0 -16 5 -19 30 -13 23 4 30 2
30 -10 0 -9 -12 -17 -31 -19 -25 -4 -33 -1 -37 14 -3 11 -17 21 -33 25 -24 4
-29 11 -29 34 0 19 5 29 15 29 8 0 15 -7 15 -15 0 -8 4 -15 9 -15 17 0 22 19
11 40 -14 27 -80 28 -103 2z m183 -186 c0 -16 -18 -31 -27 -22 -8 8 5 36 17
36 5 0 10 -6 10 -14z"/>
<path d="M2908 2283 c-15 -4 -18 -16 -18 -62 0 -32 -3 -79 -6 -105 l-7 -46 47
0 46 0 -6 73 c-4 50 -3 68 5 57 5 -8 7 -27 4 -43 -4 -19 -1 -32 8 -38 25 -16
35 -10 46 29 l10 37 2 -57 c1 -52 3 -58 22 -58 21 0 22 3 17 91 -4 62 -10 94
-19 100 -19 12 -25 11 -42 -6 -12 -12 -20 -12 -41 -2 -14 7 -26 18 -26 25 0
12 -10 13 -42 5z"/>
<path d="M820 2175 l0 -105 35 0 c34 0 35 1 35 40 0 29 4 40 15 40 11 0 15
-12 15 -50 0 -49 12 -66 24 -34 3 9 9 53 12 99 6 78 6 83 -15 90 -11 3 -25 3
-31 0 -5 -3 -10 1 -10 9 0 12 -10 16 -40 16 l-40 0 0 -105z"/>
<path d="M1013 2265 c-29 -20 -37 -64 -23 -129 14 -67 30 -84 66 -67 24 11 25
10 22 -16 -3 -30 -14 -33 -76 -19 -31 7 -33 6 -30 -15 4 -27 48 -42 111 -37
61 4 69 26 61 168 -6 110 -16 139 -39 121 -5 -5 -19 -5 -30 0 -29 11 -38 11
-62 -6z m72 -120 c0 -20 -6 -31 -17 -33 -15 -3 -18 4 -18 33 0 29 3 36 18 33
11 -2 17 -13 17 -33z"/>
<path d="M694 2245 c-22 -33 -15 -126 11 -155 19 -21 79 -28 90 -10 3 5 9 41
12 79 5 61 3 71 -16 90 -30 30 -76 28 -97 -4z m46 -65 c0 -64 -10 -76 -28 -35
-15 32 -15 51 -2 76 19 35 30 20 30 -41z"/>
<path d="M1200 2243 c-19 -24 -21 -37 -17 -86 6 -71 19 -87 67 -87 52 0 70 8
70 32 0 16 -5 18 -37 12 -21 -3 -42 -7 -47 -8 -6 0 -12 7 -14 17 -3 14 4 17
47 17 l51 0 0 45 c0 81 -74 116 -120 58z m67 -48 c7 -21 2 -25 -25 -18 -12 3
-22 12 -22 19 0 19 39 18 47 -1z"/>
<path d="M1546 2254 c-22 -21 -29 -57 -21 -102 11 -61 30 -82 74 -82 45 0 51
11 51 106 0 46 -4 65 -18 77 -23 21 -66 22 -86 1z m34 -81 c0 -71 -9 -74 -30
-10 -10 33 -10 41 6 58 9 10 19 19 21 19 1 0 3 -30 3 -67z"/>
<path d="M2273 2258 c-26 -12 -26 -17 -10 -113 11 -60 16 -70 34 -73 17 -3 22
3 26 25 l4 28 2 -29 c1 -26 4 -28 28 -21 16 4 29 8 31 9 5 6 20 161 16 166 -3
2 -9 -2 -14 -10 -7 -12 -12 -12 -22 -2 -16 16 -45 16 -51 0 -3 -7 -6 -3 -6 10
-1 24 -6 26 -38 10z"/>
<path d="M2745 2259 c-10 -15 3 -24 32 -24 39 0 40 -23 1 -27 -32 -3 -33 -4
-36 -57 -2 -30 1 -58 6 -63 5 -5 32 -11 61 -14 l51 -5 0 78 c0 98 -14 123 -70
123 -21 0 -42 -5 -45 -11z m63 -126 c-5 -25 -28 -28 -28 -4 0 12 6 21 16 21 9
0 14 -7 12 -17z"/>
<path d="M3134 2256 c-16 -12 -19 -27 -19 -84 0 -85 12 -102 69 -102 43 0 66
13 66 37 0 11 -9 12 -37 7 -21 -3 -42 -7 -47 -8 -6 0 -12 7 -14 17 -3 14 4 17
49 17 l52 0 -5 52 c-6 57 -24 78 -68 78 -14 0 -35 -6 -46 -14z m63 -61 c3 -9
3 -18 0 -21 -10 -10 -47 7 -47 22 0 19 39 18 47 -1z"/>
<path d="M310 1889 c-14 -6 -38 -22 -53 -37 -89 -84 -103 -267 -27 -344 25
-24 36 -28 87 -28 80 0 127 28 167 100 26 46 30 65 30 125 0 84 -30 157 -75
180 -32 17 -92 19 -129 4z m138 -32 c56 -59 68 -181 26 -265 -36 -73 -123
-119 -173 -92 -62 33 -86 183 -44 265 50 96 145 141 191 92z m-196 -55 c-7 -2
-12 -12 -12 -23 0 -10 -5 -19 -11 -19 -5 0 -9 3 -7 8 24 50 33 62 37 51 2 -7
-1 -15 -7 -17z m-40 -109 c-3 -16 -7 -22 -10 -15 -4 13 4 42 11 42 2 0 2 -12
-1 -27z"/>
<path d="M2804 1871 c-43 -26 -89 -85 -103 -130 -26 -88 -7 -198 41 -243 25
-23 39 -28 79 -28 124 0 203 90 202 231 -1 74 -18 122 -58 162 -23 22 -36 27
-79 27 -32 0 -62 -7 -82 -19z m155 -25 c43 -46 63 -157 40 -227 -27 -79 -117
-149 -174 -135 -31 8 -61 51 -77 110 -25 96 25 220 105 257 56 25 79 24 106
-5z m-222 -96 c-7 -17 -13 -26 -15 -21 -3 10 15 51 22 51 3 0 -1 -14 -7 -30z
m-20 -102 c-3 -7 -5 -2 -5 12 0 14 2 19 5 13 2 -7 2 -19 0 -25z"/>
<path d="M1680 1809 c-197 -53 -371 -233 -425 -439 -26 -96 -23 -265 5 -355
35 -111 78 -183 161 -266 79 -80 175 -137 269 -158 58 -13 202 -13 260 0 184
42 362 213 424 406 20 59 36 193 24 193 -4 0 -8 -25 -8 -55 l0 -55 -50 0 c-58
0 -77 20 -60 65 7 19 6 34 -5 55 -8 16 -15 37 -15 47 -1 17 -1 17 -11 0 -6
-10 -9 -35 -8 -55 4 -47 -9 -102 -24 -102 -19 0 -38 38 -31 64 12 48 -74 169
-148 207 -43 22 -44 24 -27 150 9 62 17 87 30 97 21 15 25 52 7 70 -17 17 -48
15 -71 -5 -18 -17 -19 -17 -28 0 -6 10 -22 17 -39 17 -21 0 -40 11 -68 42 -34
36 -44 41 -83 42 -86 2 -150 -72 -157 -182 -4 -56 -1 -68 25 -110 27 -44 28
-48 12 -63 -9 -10 -31 -20 -49 -24 -40 -9 -42 -16 -30 -90 l9 -60 -5 68 c-4
62 -3 67 16 67 11 0 20 -4 20 -10 0 -5 6 -10 14 -10 22 0 29 -19 14 -37 -12
-15 -11 -15 9 -5 29 16 32 15 44 -10 l10 -23 -5 23 c-3 15 1 22 11 22 9 0 11
5 7 13 -5 7 -1 7 12 -3 29 -22 30 -24 11 -17 -10 4 -16 3 -12 -3 6 -9 144 -6
278 6 48 4 67 3 67 -6 0 -6 4 -9 8 -6 10 6 64 -48 80 -79 8 -16 6 -39 -9 -90
-10 -39 -21 -81 -24 -95 -5 -21 -4 -20 8 5 l14 30 15 -35 c14 -31 14 -36 1
-47 -11 -9 -12 -16 -4 -32 16 -29 14 -31 -23 -31 -34 0 -35 0 -25 30 6 16 9
35 7 42 -3 7 -10 -8 -16 -33 -9 -37 -18 -49 -42 -59 -17 -7 -44 -29 -60 -48
-16 -20 -37 -37 -46 -38 -9 -1 -13 0 -10 4 9 9 -88 32 -115 27 -42 -8 -32 -15
22 -15 30 0 49 -4 42 -8 -7 -4 10 -14 42 -23 30 -9 52 -12 49 -8 -3 5 1 9 8 9
10 0 10 2 1 8 -9 5 -2 19 22 45 59 64 86 38 45 -43 -22 -44 -25 -54 -10 -45
15 9 12 -11 -4 -24 -10 -8 -16 -9 -21 -1 -3 5 -2 10 3 10 13 0 3 38 -12 47 -6
3 -8 3 -4 -2 11 -12 -11 -35 -34 -35 -10 0 -17 -4 -14 -9 3 -5 14 -7 24 -4 10
2 24 -3 32 -12 20 -24 3 -31 -22 -9 -21 19 -21 19 -15 -1 5 -14 -2 -10 -23 13
-21 23 -39 32 -62 33 -18 0 -51 4 -73 8 -34 6 -50 2 -109 -27 -76 -37 -116
-48 -116 -32 0 6 5 8 10 5 16 -10 11 5 -11 33 -11 15 -26 27 -32 27 -7 0 -13
21 -15 53 -3 57 3 62 41 32 30 -24 63 -26 71 -4 5 13 9 14 21 4 9 -8 15 -8 15
-2 0 18 -24 20 -52 4 -43 -25 -61 -1 -63 85 -1 37 -5 78 -9 91 -4 12 -3 37 3
55 8 24 7 43 -4 77 -12 35 -14 37 -9 10 10 -50 8 -90 -3 -101 -7 -7 -9 -2 -6
15 3 15 1 26 -5 26 -6 0 -14 10 -18 22 -4 13 -14 28 -23 35 -13 9 -14 14 -3
24 14 15 16 105 2 114 -5 3 -10 -3 -10 -14 0 -10 -3 -27 -6 -36 -6 -14 -8 -14
-25 1 -16 14 -19 14 -19 3 0 -8 5 -20 12 -27 9 -9 7 -19 -11 -43 -17 -23 -20
-34 -12 -42 38 -38 -26 -93 -114 -98 l-60 -4 -3 108 c-5 195 42 313 177 447
125 125 231 170 394 170 139 0 263 -49 365 -145 121 -112 187 -241 201 -390 8
-73 8 -75 10 -25 1 73 -21 157 -66 249 -67 138 -224 269 -367 307 -58 15 -233
17 -286 3z m146 -74 c18 -14 35 -34 39 -45 5 -15 12 -18 35 -14 37 8 57 -23
35 -52 -9 -12 -14 -14 -15 -6 0 10 -3 10 -14 0 -8 -7 -10 -16 -5 -19 15 -9 14
-116 0 -133 -11 -13 -11 -16 4 -16 23 0 15 -34 -10 -39 -11 -2 -33 -14 -48
-27 -16 -13 -32 -24 -35 -24 -4 0 -7 44 -7 98 -1 76 -5 106 -20 137 -52 105
-154 6 -114 -110 18 -51 53 -61 70 -19 11 30 5 74 -11 74 -5 0 -8 -12 -7 -27
2 -22 -2 -28 -18 -28 -28 0 -33 63 -7 95 52 64 89 -39 61 -168 l-10 -50 -42 5
c-43 6 -67 18 -67 35 0 6 9 8 19 5 17 -4 19 -2 10 20 -5 14 -18 38 -29 53 -30
42 -36 108 -16 168 35 103 128 143 202 87z m221 -71 c14 -37 -41 -71 -66 -40
-9 11 -10 20 -1 35 13 25 58 28 67 5z m-67 -49 c9 -11 10 -36 5 -92 l-8 -78
-22 75 c-17 57 -19 79 -11 92 13 22 20 22 36 3z m-27 -182 c5 -24 3 -33 -7
-33 -15 0 -30 85 -19 103 7 11 14 -7 26 -70z m-4 -47 c41 -15 29 -22 -51 -31
-29 -4 -64 -9 -78 -11 -19 -4 -14 2 20 25 50 34 59 35 109 17z m54 -37 c-5 -5
-46 -12 -89 -14 l-79 -3 75 12 c103 18 106 18 93 5z m-176 -25 c-3 -3 -12 -4
-19 -1 -8 3 -5 6 6 6 11 1 17 -2 13 -5z m-336 -77 c-10 -9 -11 -8 -5 6 3 10 9
15 12 12 3 -3 0 -11 -7 -18z m670 -94 c-8 -15 -10 -15 -11 -2 0 17 10 32 18
25 2 -3 -1 -13 -7 -23z m-701 -32 c-5 -10 -17 -21 -26 -25 -10 -4 -14 -13 -11
-26 4 -16 0 -20 -19 -20 -13 0 -24 5 -24 12 0 16 41 58 57 58 7 0 13 7 13 16
0 8 5 12 10 9 7 -4 7 -12 0 -24z m30 -6 c0 -8 -4 -15 -10 -15 -5 0 -7 7 -4 15
4 8 8 15 10 15 2 0 4 -7 4 -15z m-10 -45 c0 -5 -2 -10 -4 -10 -3 0 -8 5 -11
10 -3 6 -1 10 4 10 6 0 11 -4 11 -10z m82 -25 c4 -16 5 -47 1 -67 -5 -32 -10
-38 -29 -38 -25 0 -32 14 -14 25 6 4 8 16 5 26 -4 11 -1 26 5 34 9 10 9 19 0
35 -10 19 -9 21 6 18 10 -1 21 -16 26 -33z m-192 11 c0 -8 14 -17 30 -21 17
-4 30 -13 30 -21 0 -8 5 -14 10 -14 6 0 10 -9 10 -20 0 -13 7 -20 20 -20 11 0
20 -4 20 -10 0 -6 -39 -10 -96 -10 l-95 0 -15 36 c-8 19 -17 48 -21 65 l-5 29
56 0 c42 0 56 -4 56 -14z m870 -11 c11 -20 11 -27 0 -40 -10 -12 -10 -18 0
-31 11 -12 11 -18 -2 -30 -28 -28 -43 -8 -44 61 0 54 2 65 16 65 9 0 23 -11
30 -25z m109 19 c37 -8 37 -8 10 -79 -17 -45 -25 -55 -44 -55 -18 0 -24 7 -28
33 -2 17 0 40 5 51 7 12 6 22 -1 29 -26 26 -5 33 58 21z m-889 -36 c0 -12 -3
-18 -7 -14 -10 10 -11 46 -1 40 4 -3 8 -15 8 -26z m30 12 c0 -5 -5 -10 -11
-10 -5 0 -7 5 -4 10 3 6 8 10 11 10 2 0 4 -4 4 -10z m63 -120 c-19 -8 -23 -17
-23 -57 0 -53 6 -66 33 -76 14 -5 17 -19 17 -77 0 -54 -3 -69 -12 -64 -48 28
-103 70 -143 110 -51 51 -115 141 -115 161 0 10 32 13 133 12 89 0 125 -3 110
-9z m775 -5 c8 -7 -55 -94 -107 -149 -65 -69 -133 -114 -214 -145 -65 -24 -67
-24 -67 -13 0 5 18 17 40 27 58 26 68 42 79 130 9 72 17 121 26 150 2 9 234 9
243 0z m-475 -149 c-4 -6 1 -5 10 2 23 19 61 11 65 -13 l3 -20 -17 20 c-16 20
-16 20 -9 -2 6 -22 4 -23 -54 -23 -34 0 -61 4 -61 10 0 17 5 25 12 23 4 -2 5
3 2 10 -4 10 3 12 25 9 20 -3 28 -8 24 -16z m-101 2 c10 -27 -4 -38 -50 -38
l-47 1 40 24 c46 29 51 30 57 13z m68 -163 c0 -10 -10 -15 -30 -15 -20 0 -30
5 -30 15 0 10 10 15 30 15 20 0 30 -5 30 -15z"/>
<path d="M1861 1644 c0 -11 3 -14 6 -6 3 7 2 16 -1 19 -3 4 -6 -2 -5 -13z"/>
<path d="M1859 1433 c-13 -16 -12 -17 4 -4 9 7 17 15 17 17 0 8 -8 3 -21 -13z"/>
<path d="M3495 1611 c-115 -28 -204 -123 -247 -265 -52 -172 21 -370 166 -443
56 -29 186 -46 186 -24 0 7 -21 11 -57 11 -77 1 -126 25 -190 92 -98 105 -110
254 -33 413 37 76 188 185 258 185 15 0 22 6 22 20 0 17 -6 20 -37 19 -21 -1
-51 -4 -68 -8z"/>
<path d="M805 1314 c-44 -23 -59 -39 -90 -96 -22 -41 -28 -64 -28 -117 -1
-132 43 -191 142 -191 67 0 111 24 148 79 64 94 54 255 -19 316 -35 30 -105
34 -153 9z m149 -33 c63 -66 66 -207 6 -289 -35 -48 -107 -81 -147 -66 -69 24
-95 171 -49 269 27 59 51 82 103 101 53 18 56 18 87 -15z m-209 -62 c-3 -12
-7 -24 -10 -27 -3 -3 -3 5 -1 19 6 30 5 29 10 29 3 0 3 -10 1 -21z m-25 -80
c-7 -11 -14 -18 -17 -15 -3 3 0 12 7 21 18 21 23 19 10 -6z"/>
<path d="M1984 1285 c-7 -17 3 -35 19 -34 9 0 9 2 0 6 -7 2 -13 11 -13 19 0 9
5 12 12 8 7 -4 8 -3 4 4 -10 16 -15 15 -22 -3z"/>
<path d="M1665 1271 c-6 -5 -19 -11 -30 -14 -19 -4 -19 -5 1 -6 12 0 27 6 34
14 14 16 10 20 -5 6z"/>
<path d="M0 1244 c0 -5 9 -15 20 -21 48 -30 47 -153 -2 -187 -12 -9 -18 -19
-14 -23 14 -14 55 50 62 95 8 52 -11 108 -43 130 -13 8 -23 10 -23 6z"/>
<path d="M1652 1234 c-23 -16 -29 -34 -11 -34 5 0 8 4 4 10 -3 5 7 16 22 24
15 8 23 15 18 16 -6 0 -21 -7 -33 -16z"/>
<path d="M2085 1241 c-3 -6 3 -9 14 -8 11 0 17 5 15 9 -7 11 -22 10 -29 -1z"/>
<path d="M1868 1223 c7 -3 16 -2 19 1 4 3 -2 6 -13 5 -11 0 -14 -3 -6 -6z"/>
<path d="M2072 1193 c-1 -17 3 -35 10 -39 13 -9 48 31 48 55 -1 9 -7 1 -15
-16 -8 -18 -18 -33 -24 -33 -5 0 -12 15 -14 33 l-4 32 -1 -32z"/>
<path d="M1611 1193 c-1 -18 13 -23 29 -11 12 8 12 9 -2 5 -9 -3 -19 -1 -22 6
-3 9 -5 9 -5 0z"/>
<path d="M1668 1193 c7 -3 16 -2 19 1 4 3 -2 6 -13 5 -11 0 -14 -3 -6 -6z"/>
<path d="M1730 1181 c0 -19 23 -35 34 -24 12 12 86 14 86 3 0 -21 43 -5 52 19
7 21 6 23 -14 16 -63 -19 -97 -21 -119 -9 -33 18 -39 17 -39 -5z"/>
<path d="M1966 1169 c19 -26 34 -29 34 -7 0 6 -3 8 -7 5 -3 -4 -15 1 -27 10
-20 18 -20 18 0 -8z"/>
<path d="M2080 1080 c0 -11 4 -20 9 -20 6 0 9 9 8 20 -1 11 -5 20 -9 20 -4 0
-8 -9 -8 -20z"/>
<path d="M1750 1070 c-14 -4 -20 -8 -13 -9 6 -1 18 -3 26 -6 8 -4 14 0 14 10
0 8 -1 15 -1 14 -1 -1 -12 -5 -26 -9z"/>
<path d="M1960 1076 c0 -2 9 -6 20 -9 11 -3 18 -1 14 4 -5 9 -34 13 -34 5z"/>
<path d="M1610 1029 c0 -5 5 -7 10 -4 6 3 10 8 10 11 0 2 -4 4 -10 4 -5 0 -10
-5 -10 -11z"/>
<path d="M2032 1005 c0 -16 2 -22 5 -12 2 9 2 23 0 30 -3 6 -5 -1 -5 -18z"/>
<path d="M1795 1002 c-21 -7 -25 -28 -11 -50 4 -8 1 -23 -8 -37 -23 -35 -20
-38 22 -17 20 11 56 22 79 26 38 5 42 4 36 -11 -5 -15 -3 -14 11 2 16 20 16
20 31 1 13 -18 15 -18 15 -3 0 10 -6 20 -14 23 -8 3 -12 13 -9 23 9 35 -90 63
-152 43z m55 -12 c0 -5 -9 -10 -21 -10 -11 0 -17 5 -14 10 3 6 13 10 21 10 8
0 14 -4 14 -10z"/>
<path d="M1728 974 c2 -14 11 -24 21 -24 14 0 14 2 1 10 -12 8 -13 12 -2 19
11 6 9 9 -6 13 -15 4 -18 1 -14 -18z"/>
<path d="M1930 873 c-24 -12 -24 -13 -3 -13 12 0 25 5 28 11 11 16 2 17 -25 2z"/>
<path d="M1576 847 c-7 -27 -4 -30 17 -14 13 10 14 14 2 24 -10 9 -14 8 -19
-10z"/>
<path d="M1646 862 c-2 -4 9 -14 25 -21 17 -7 26 -17 23 -24 -5 -8 -3 -8 6 0
11 10 9 16 -10 33 -25 21 -36 25 -44 12z"/>
<path d="M1748 843 c7 -3 16 -2 19 1 4 3 -2 6 -13 5 -11 0 -14 -3 -6 -6z"/>
<path d="M1600 810 c-9 -6 -10 -10 -3 -10 6 0 15 5 18 10 8 12 4 12 -15 0z"/>
<path d="M2993 642 c-135 -48 -217 -166 -218 -317 -1 -183 73 -275 221 -275
116 0 218 69 270 183 48 105 37 251 -25 339 -53 76 -153 104 -248 70z m202
-49 c51 -51 79 -128 80 -218 0 -71 -4 -88 -33 -147 -38 -79 -86 -122 -156
-143 -83 -25 -117 -20 -158 21 -114 113 -97 331 33 448 53 48 92 63 160 65 38
1 51 -4 74 -26z m-233 10 c-6 -2 -10 -9 -6 -14 3 -5 0 -8 -8 -7 -7 2 -12 -3
-10 -9 1 -7 -5 -13 -13 -13 -8 0 -15 2 -15 5 0 9 44 45 54 44 6 0 5 -3 -2 -6z
m-63 -65 c-10 -4 -19 -12 -19 -18 0 -6 5 -8 10 -5 16 10 11 -1 -7 -16 -10 -8
-14 -9 -10 -2 4 6 3 14 -3 18 -6 4 -4 15 7 29 13 17 20 20 29 12 9 -8 7 -13
-7 -18z m-49 -98 c-6 -12 -13 -31 -15 -42 -6 -27 -8 -28 -23 -12 -10 11 -9 17
7 30 12 11 18 25 15 41 -3 17 -1 22 7 17 8 -4 9 -3 5 4 -4 7 -4 18 1 25 13 20
16 -39 3 -63z m-27 -123 c-2 -61 -2 -61 -9 -54 -11 10 -10 105 1 101 5 -2 9
-23 8 -47z m19 -110 c3 -15 0 -24 -8 -24 -9 0 -12 9 -8 26 4 20 3 23 -5 11 -6
-8 -11 -10 -11 -4 0 32 26 25 32 -9z"/>
<path d="M85 491 c-80 -37 -85 -51 -85 -225 l0 -154 45 -17 c75 -29 154 -4
204 66 55 76 63 184 21 274 -35 72 -105 93 -185 56z m5 -14 c0 -2 -10 -12 -22
-23 l-23 -19 19 23 c18 21 26 27 26 19z m149 -23 c29 -37 44 -99 39 -164 -8
-110 -70 -183 -156 -184 -41 -1 -48 2 -69 33 -52 77 -51 182 2 264 52 77 144
102 184 51z m-205 -49 c-4 -8 -8 -15 -10 -15 -2 0 -4 7 -4 15 0 8 4 15 10 15
5 0 7 -7 4 -15z"/>
</g>
</svg>
