<svg xmlns="http://www.w3.org/2000/svg" xmlns:xlink="http://www.w3.org/1999/xlink" width="500" zoomAndPan="magnify" viewBox="0 0 375 374.999991" height="500" preserveAspectRatio="xMidYMid meet" version="1.0"><defs><clipPath id="b819e1d8d4"><path d="M 8.582031 41 L 366.332031 41 L 366.332031 334.695312 L 8.582031 334.695312 Z M 8.582031 41 " clip-rule="nonzero"/></clipPath></defs><rect x="-37.5" width="450" fill="#ffffff" y="-37.499999" height="449.999989" fill-opacity="1"/><rect x="-37.5" width="450" fill="#5c0000" y="-37.499999" height="449.999989" fill-opacity="1"/><g clip-path="url(#b819e1d8d4)"><path fill="#ffffff" d="M 113.40625 331.015625 L 169.710938 274.714844 C 172.59375 271.832031 177.28125 271.835938 180.160156 274.714844 L 229.773438 324.324219 C 235.117188 329.671875 243.816406 329.671875 249.160156 324.324219 L 266.40625 307.078125 C 268.996094 304.488281 270.421875 301.042969 270.421875 297.382812 C 270.421875 293.71875 268.996094 290.277344 266.40625 287.6875 L 184.632812 205.914062 C 179.285156 200.566406 170.585938 200.566406 165.242188 205.914062 L 76.769531 294.382812 C 71.425781 299.730469 71.425781 308.425781 76.769531 313.777344 L 94.015625 331.015625 C 96.6875 333.691406 100.199219 335.027344 103.710938 335.027344 C 107.222656 335.027344 110.734375 333.691406 113.40625 331.015625 Z M 345.152344 292.671875 L 362.398438 275.425781 C 364.988281 272.835938 366.414062 269.390625 366.414062 265.730469 C 366.414062 262.070312 364.988281 258.621094 362.398438 256.03125 L 248.453125 142.09375 C 243.109375 136.746094 234.410156 136.746094 229.0625 142.09375 L 211.816406 159.335938 C 206.472656 164.683594 206.472656 173.382812 211.816406 178.726562 L 325.761719 292.671875 C 328.433594 295.34375 331.941406 296.679688 335.457031 296.679688 C 338.964844 296.679688 342.480469 295.34375 345.152344 292.671875 Z M 39.539062 270.863281 C 35.878906 270.863281 32.433594 269.4375 29.84375 266.847656 L 12.601562 249.601562 C 10.007812 247.011719 8.585938 243.570312 8.585938 239.90625 C 8.585938 236.246094 10.007812 232.800781 12.601562 230.210938 L 197.503906 45.304688 C 202.847656 39.960938 211.550781 39.960938 216.898438 45.304688 L 234.140625 62.550781 C 239.488281 67.898438 239.488281 76.597656 234.140625 81.941406 L 49.234375 266.847656 C 46.644531 269.4375 43.203125 270.863281 39.539062 270.863281 " fill-opacity="1" fill-rule="nonzero"/></g></svg>